<?xml version="1.0" standalone="no"?>
<!DOCTYPE svg PUBLIC "-//W3C//DTD SVG 20010904//EN"
 "http://www.w3.org/TR/2001/REC-SVG-20010904/DTD/svg10.dtd">
<svg version="1.0" xmlns="http://www.w3.org/2000/svg"
 width="1633.000000pt" height="1633.000000pt" viewBox="0 0 1633.000000 1633.000000"
 preserveAspectRatio="xMidYMid meet">
<metadata>
Created by potrace 1.11, written by Peter Selinger 2001-2013
</metadata>
<g transform="translate(0.000000,1633.000000) scale(0.100000,-0.100000)"
fill="#000000" stroke="none">
<path d="M8099 15898 c0 -7 -1 -156 -1 -331 0 -363 11 -343 -93 -172 -58 94
-134 210 -172 264 -23 31 -96 100 -131 123 -179 118 -441 23 -656 -238 -73
-89 -76 -92 -76 -97 0 -2 44 11 98 29 97 33 197 50 207 34 3 -4 -8 -21 -23
-36 -127 -129 -193 -283 -167 -387 l12 -46 -71 0 c-116 -1 -233 -49 -333 -136
l-50 -44 -33 24 c-97 71 -268 102 -395 70 -183 -46 -341 -172 -377 -300 -46
-167 46 -409 252 -655 l51 -62 -64 -48 c-247 -187 -560 -342 -825 -409 -116
-30 -128 -32 -244 -38 -126 -7 -185 6 -227 49 -21 22 -35 28 -57 25 -35 -4
-42 -31 -24 -92 31 -111 106 -202 207 -249 l56 -27 -66 -67 c-173 -176 -240
-320 -178 -386 23 -24 78 -42 124 -40 37 2 12 -14 -110 -73 -390 -188 -578
-239 -719 -194 -86 27 -165 113 -179 194 -4 20 -10 39 -14 41 -12 8 -97 -51
-132 -92 -38 -45 -72 -127 -73 -181 -1 -36 16 -132 28 -162 11 -25 -20 -30
-199 -34 -203 -5 -288 11 -424 78 -60 30 -202 149 -191 160 3 3 52 -6 110 -19
136 -32 336 -40 430 -18 174 40 275 132 316 288 16 59 12 279 -5 336 -6 19
-14 48 -16 63 -3 16 -15 56 -27 90 -139 411 -473 523 -924 312 -42 -19 -78
-34 -79 -33 -1 2 -12 25 -25 52 -28 58 -80 113 -128 133 -35 14 -137 22 -148
11 -3 -3 8 -26 24 -52 26 -40 29 -54 26 -106 -2 -33 -16 -97 -32 -142 -17 -46
-43 -121 -60 -168 -48 -133 -67 -217 -71 -313 -1 -16 -8 -18 -63 -12 -35 3
-85 10 -113 15 -27 6 -60 12 -73 15 -38 7 -65 15 -104 32 -33 14 -41 25 -72
102 -19 47 -36 79 -37 71 0 -8 -1 -52 -1 -97 0 -75 3 -89 36 -154 84 -164 191
-304 359 -465 105 -101 290 -250 397 -318 l44 -29 -36 -13 c-30 -10 -46 -10
-90 2 -29 8 -84 15 -123 15 -127 2 -214 -36 -258 -113 -49 -86 -77 -272 -56
-368 31 -138 159 -189 340 -134 18 5 36 -29 45 -84 3 -21 6 -39 7 -42 0 -3 -2
-30 -7 -61 -7 -53 -54 -160 -92 -210 -36 -46 -205 -208 -225 -214 -11 -4 -41
2 -67 12 -33 13 -74 18 -137 18 -76 0 -99 -4 -146 -26 l-55 -26 -18 51 c-41
114 -106 174 -218 200 -309 71 -578 -109 -563 -377 2 -42 11 -81 22 -100 38
-64 119 -53 206 28 40 38 51 44 67 35 11 -6 21 -21 21 -33 8 -123 -30 -280
-101 -419 -77 -148 -129 -326 -148 -496 -9 -87 -8 -350 1 -427 18 -142 26
-188 48 -280 11 -44 22 -89 24 -101 3 -11 20 -67 40 -125 19 -57 31 -107 27
-110 -16 -16 -154 -80 -227 -106 -67 -23 -97 -27 -185 -28 -98 0 -109 2 -158
30 -58 32 -98 76 -127 143 -21 49 -23 47 -55 -47 -52 -155 -7 -276 130 -346
54 -27 146 -56 154 -48 3 4 6 3 6 0 0 -4 -22 -30 -50 -58 -63 -65 -112 -163
-140 -281 -19 -75 -23 -124 -24 -253 -1 -190 6 -261 38 -355 96 -282 309 -378
701 -314 233 38 515 290 575 514 19 70 21 82 21 135 1 151 -75 281 -203 347
l-53 28 43 -5 c168 -19 189 -24 270 -56 209 -83 349 -264 426 -552 14 -51 28
-110 31 -132 3 -23 7 -50 9 -61 8 -42 18 -175 20 -278 l3 -106 -31 24 c-117
89 -263 174 -341 198 -129 40 -255 49 -339 24 -25 -8 -69 -29 -97 -47 -56 -36
-53 -43 22 -53 137 -18 287 -107 393 -233 l19 -23 -50 15 c-114 34 -286 56
-428 54 -210 -2 -325 -25 -470 -94 -277 -133 -468 -423 -530 -805 -3 -19 -7
-46 -10 -60 -20 -113 -27 -483 -13 -625 9 -86 27 -215 33 -235 2 -8 7 -31 10
-50 3 -19 11 -53 16 -75 6 -22 13 -47 15 -55 10 -46 47 -161 74 -233 130 -343
327 -646 587 -904 51 -50 93 -93 93 -95 0 -1 -38 -4 -85 -5 -163 -4 -304 -64
-361 -155 -14 -22 -24 -41 -22 -42 2 -1 44 -9 93 -18 104 -18 208 -57 280
-104 55 -36 152 -130 143 -139 -16 -16 -164 -34 -258 -31 -233 8 -408 123
-485 319 l-29 72 -22 -90 c-13 -49 -26 -112 -30 -140 -34 -249 55 -439 254
-538 l62 -31 -7 -41 c-4 -22 -7 -78 -6 -125 1 -136 46 -216 152 -271 118 -61
343 -55 558 13 38 12 70 22 73 23 21 5 130 49 127 51 -2 2 -38 5 -80 6 -42 1
-77 3 -77 5 0 1 13 9 30 18 49 25 161 47 239 47 120 -1 251 -17 251 -30 -1 -4
-44 -38 -96 -76 -61 -44 -147 -124 -236 -218 -141 -148 -206 -196 -246 -184
-25 8 -60 72 -68 125 -4 23 -9 40 -13 39 -145 -69 -242 -150 -257 -213 -9 -36
-8 -123 1 -173 16 -85 74 -144 175 -179 80 -27 309 -24 443 5 79 17 102 19
118 9 10 -6 19 -15 19 -18 0 -12 99 -71 143 -86 172 -60 383 -14 598 129 90
61 198 157 304 274 139 151 189 199 270 258 259 191 564 195 763 11 155 -143
228 -290 198 -395 -28 -94 -114 -219 -152 -220 -6 0 -18 -15 -27 -34 l-16 -34
63 -25 c94 -38 170 -49 247 -35 143 25 257 163 294 357 2 12 6 30 9 39 8 27
18 140 21 229 2 44 6 86 9 92 9 13 129 -29 199 -71 28 -16 82 -55 121 -87 39
-32 109 -87 156 -123 281 -216 576 -525 781 -818 94 -133 228 -254 369 -332
114 -63 296 -127 410 -144 19 -3 40 -7 47 -9 7 -2 51 -7 99 -11 369 -29 684
44 954 221 201 131 293 293 294 515 1 218 -58 359 -191 456 -56 40 -141 80
-193 89 -19 3 -36 8 -40 10 -4 2 -47 5 -96 6 l-89 1 45 40 45 40 -100 -52
c-55 -29 -108 -60 -119 -69 -10 -9 -20 -15 -22 -13 -9 6 -63 -29 -110 -71 -59
-53 -90 -111 -110 -207 -19 -95 -20 -160 -1 -197 24 -45 114 -122 182 -154 79
-38 128 -38 200 1 l55 30 -4 -26 c-19 -106 -137 -158 -356 -158 -83 0 -228 10
-283 19 -116 20 -160 29 -234 51 -140 40 -253 105 -315 179 -36 43 -44 74 -21
81 58 18 99 42 134 78 52 52 76 100 92 178 11 57 13 86 8 200 l-1 33 -44 -47
c-72 -77 -207 -154 -303 -173 -86 -16 -192 -1 -279 40 -66 31 -191 125 -274
204 -189 182 -291 279 -326 307 -138 109 -339 221 -507 282 l-79 29 33 33 c44
44 101 68 199 84 20 4 13 16 -24 44 -149 111 -493 129 -793 43 l-32 -9 7 76
c8 94 8 350 -1 412 -39 293 -152 449 -363 505 -124 33 -274 -4 -351 -87 -34
-36 -64 -113 -66 -171 -5 -139 117 -217 339 -217 71 0 86 -3 103 -21 33 -36
37 -112 10 -214 -6 -22 -13 -47 -14 -56 -8 -40 -38 -80 -73 -98 -186 -95 -394
-99 -548 -10 -115 65 -237 221 -314 401 -38 86 -39 110 -10 166 50 96 167 145
347 146 l111 1 46 75 c64 106 141 280 161 367 3 10 9 36 14 58 25 103 33 260
18 356 -47 307 -299 557 -588 585 -35 3 -65 7 -65 8 -1 0 17 34 41 73 68 117
94 228 72 316 -14 58 -22 65 -65 60 -106 -11 -258 -70 -366 -143 -160 -108
-304 -319 -381 -557 -9 -29 -25 -63 -35 -75 -18 -22 -18 -22 -19 69 -1 74 -14
173 -35 258 -43 180 -172 312 -336 344 -113 21 -174 18 -206 -14 -42 -43 -20
-98 81 -194 78 -75 89 -99 111 -238 12 -74 4 -329 -11 -353 -2 -3 -6 -26 -10
-50 -3 -25 -10 -61 -15 -80 -5 -19 -12 -55 -15 -80 -4 -25 -10 -63 -15 -85
-11 -53 -23 -159 -24 -212 0 -24 -3 -43 -6 -43 -4 0 -40 37 -81 81 -41 45 -79
87 -84 93 -52 56 -145 171 -216 266 -264 353 -375 628 -336 833 18 90 110 59
273 -92 l58 -54 11 44 c31 124 -55 277 -223 396 l-63 45 2 92 c2 50 5 105 9
121 6 28 7 27 14 -18 18 -114 145 -296 236 -339 37 -18 43 -19 180 -43 163
-28 400 -37 526 -21 73 10 227 37 234 41 4 2 17 6 31 8 13 3 53 15 89 27 382
131 662 409 820 816 29 74 112 346 107 350 -1 1 -39 -46 -84 -104 -138 -180
-287 -319 -394 -370 -63 -30 -109 -28 -81 4 24 26 82 234 96 344 31 239 26
495 -15 775 -6 39 -12 79 -13 90 -2 11 -6 34 -9 50 -4 17 -9 44 -12 60 -4 25
-46 214 -59 267 -3 9 -17 61 -31 115 -15 54 -32 115 -38 137 -12 47 -1 83 54
177 71 119 205 235 328 285 51 20 46 28 -45 58 -105 36 -228 50 -288 34 l-28
-7 6 47 c3 26 9 58 12 72 15 65 11 277 -7 365 -33 163 -127 313 -253 403 l-45
33 -17 -38 c-48 -112 -106 -335 -119 -458 -8 -84 -9 -210 -1 -275 l7 -55 -23
40 c-64 110 -117 246 -152 389 l-21 88 -36 -53 c-74 -108 -102 -192 -102 -300
1 -91 10 -91 -122 -1 -294 201 -449 388 -448 543 0 107 91 252 187 299 29 14
62 20 106 20 l63 0 -59 -38 c-80 -52 -138 -114 -153 -162 -38 -129 89 -231
374 -297 49 -11 125 -9 166 4 105 35 159 116 168 252 16 224 -75 385 -253 445
-18 6 -18 7 0 27 49 54 178 130 278 164 l45 16 58 -40 c78 -52 141 -80 227
-97 137 -29 258 -24 434 17 l94 22 -6 31 c-18 93 -137 253 -236 317 -28 18
-50 35 -50 38 0 4 16 15 36 26 57 31 128 107 159 170 22 45 30 76 33 140 3 54
1 85 -7 89 -17 11 -13 43 9 64 64 60 347 78 400 27 12 -13 11 -20 -7 -59 l-22
-44 47 -18 c31 -12 74 -18 128 -19 72 0 85 3 123 28 72 48 113 171 89 267 -21
83 -129 165 -243 185 -22 4 -48 9 -59 11 -32 6 -29 11 21 34 136 66 311 56
509 -29 38 -16 72 -27 75 -25 14 8 -1 126 -22 174 -38 89 -143 165 -264 190
-33 7 -105 13 -160 13 -224 -1 -442 -67 -598 -180 l-47 -35 6 44 c4 23 7 122
8 218 l1 175 32 43 c18 24 40 63 49 88 l17 44 71 0 c305 2 733 15 851 26 62 6
182 33 264 61 195 65 422 207 764 476 75 59 144 110 151 113 10 4 15 -10 21
-53 11 -88 68 -246 122 -336 177 -294 514 -442 924 -406 328 29 600 202 776
494 12 20 52 103 76 159 l13 28 31 -50 c39 -62 65 -80 161 -108 63 -18 97 -21
201 -19 305 6 535 135 677 380 28 48 29 56 34 210 l5 160 43 3 c49 3 44 21 44
-168 0 -114 2 -130 26 -182 14 -32 30 -58 34 -58 4 0 8 -6 8 -14 0 -19 115
-142 174 -185 69 -51 169 -97 263 -122 98 -27 271 -33 372 -14 120 23 171 58
218 149 9 16 14 11 37 -39 14 -32 26 -60 26 -62 0 -3 17 -33 37 -67 197 -328
498 -498 883 -498 415 -1 710 169 863 495 31 66 72 199 82 269 l7 46 143 -113
c373 -294 564 -412 800 -495 50 -17 91 -31 93 -30 1 1 26 -3 55 -9 28 -6 70
-13 92 -15 66 -9 553 -23 842 -25 l81 -1 30 -62 c16 -35 41 -74 54 -88 14 -15
23 -34 21 -45 -7 -40 -6 -222 1 -318 l8 -99 -54 40 c-89 67 -261 138 -378 157
-247 39 -433 15 -544 -70 -43 -33 -93 -106 -106 -157 -11 -40 -16 -125 -8
-134 3 -2 38 10 78 26 195 84 365 95 499 34 59 -26 60 -33 10 -41 -63 -10
-151 -42 -191 -69 -64 -45 -92 -96 -94 -177 -4 -113 31 -183 114 -224 47 -23
61 -25 120 -20 59 5 152 31 152 43 0 2 -9 20 -19 40 -11 20 -17 42 -15 49 24
62 343 47 410 -20 22 -22 23 -25 9 -59 -10 -24 -13 -56 -10 -103 9 -121 78
-229 188 -293 l49 -28 -44 -30 c-107 -73 -214 -209 -244 -308 -13 -44 -13 -45
14 -56 15 -5 76 -20 137 -32 245 -49 478 -6 621 116 19 17 24 17 73 2 83 -24
197 -89 269 -151 l33 -29 -55 -23 c-153 -63 -240 -233 -222 -433 10 -117 57
-197 141 -241 119 -61 450 31 542 152 72 94 21 206 -134 298 -24 14 -43 27
-43 30 0 3 33 4 73 1 62 -4 81 -10 120 -37 77 -53 144 -165 153 -258 17 -162
-143 -361 -456 -570 -126 -84 -120 -83 -114 -16 7 66 -14 171 -47 236 -22 44
-80 126 -89 127 -4 0 -12 -27 -19 -61 -20 -97 -66 -230 -113 -325 -50 -101
-70 -118 -57 -50 11 62 4 244 -15 351 -19 109 -45 202 -87 318 l-31 88 -28
-18 c-188 -120 -293 -337 -294 -603 0 -53 12 -203 18 -222 13 -41 15 -77 3
-73 -28 11 -104 12 -164 4 -69 -10 -223 -57 -223 -69 0 -4 19 -16 42 -26 160
-72 299 -210 361 -360 l26 -61 -35 -124 c-20 -68 -37 -130 -39 -139 -2 -8 -8
-33 -14 -55 -16 -61 -79 -383 -86 -444 -4 -30 -8 -63 -11 -74 -24 -129 -25
-695 0 -736 2 -3 7 -24 10 -46 8 -52 65 -237 77 -249 16 -17 10 -36 -12 -36
-12 0 -53 17 -92 37 -89 47 -250 203 -366 356 -46 59 -84 107 -87 107 -2 0 0
-10 5 -22 5 -13 19 -59 31 -103 58 -211 166 -452 262 -580 73 -99 230 -252
314 -307 179 -117 407 -202 599 -224 33 -3 69 -8 80 -10 30 -6 313 -5 370 1
28 3 57 6 65 7 8 0 49 6 90 14 41 7 91 16 110 19 61 11 126 57 196 140 35 43
93 161 100 207 8 49 20 49 23 1 6 -83 7 -159 3 -173 -2 -9 -22 -28 -45 -42
-156 -100 -258 -260 -243 -381 9 -70 15 -70 89 -3 101 93 171 131 229 127 34
-2 47 -150 24 -260 -53 -248 -322 -661 -648 -996 l-68 -70 -1 40 c0 22 -2 49
-4 60 -2 11 -6 45 -9 76 -3 30 -7 62 -10 70 -3 8 -7 32 -10 54 -3 22 -15 90
-26 150 -33 174 -35 193 -35 330 1 89 7 155 19 210 17 77 21 83 81 140 112
108 140 171 93 215 -18 16 -42 23 -88 22 -32 0 -132 -15 -164 -24 -193 -56
-316 -276 -320 -575 0 -62 -2 -113 -2 -113 -9 0 -43 72 -71 149 -86 242 -211
408 -397 530 -104 68 -237 116 -341 123 -37 3 -41 1 -52 -32 -17 -49 -13 -155
9 -219 19 -56 69 -154 95 -182 12 -15 7 -17 -58 -23 -256 -26 -476 -212 -566
-479 -25 -74 -28 -96 -28 -222 0 -125 3 -167 19 -241 2 -12 20 -69 40 -127 38
-114 86 -215 148 -313 l39 -62 77 3 c201 8 338 -52 387 -169 20 -47 14 -74
-48 -200 -133 -274 -306 -409 -527 -410 -78 0 -143 11 -218 39 -122 44 -136
56 -160 133 -52 165 -44 273 21 286 12 3 67 7 122 10 118 6 178 24 234 72 68
59 78 149 28 258 -58 126 -256 188 -422 131 -232 -80 -338 -301 -337 -700 0
-71 8 -219 13 -263 3 -18 -5 -19 -53 -6 -115 30 -238 47 -353 48 -138 1 -197
-6 -287 -34 -58 -18 -183 -88 -174 -98 2 -2 32 -10 65 -18 34 -7 78 -22 99
-33 36 -18 90 -68 81 -74 -2 -2 -49 -20 -104 -42 -187 -73 -370 -180 -510
-299 -38 -33 -128 -117 -200 -187 -180 -175 -262 -241 -355 -289 -183 -94
-397 -53 -572 109 l-70 65 5 -115 c4 -125 7 -138 35 -202 36 -81 114 -148 199
-172 27 -8 22 -25 -25 -84 -117 -145 -458 -246 -822 -244 -124 0 -174 7 -241
32 -69 26 -108 65 -116 117 -6 38 -5 39 13 22 31 -27 90 -48 135 -48 88 0 249
110 285 195 15 37 15 54 -3 175 -19 133 -97 232 -238 302 -53 26 -169 90 -190
104 -40 28 -35 13 10 -26 l46 -40 -82 0 c-254 0 -461 -147 -508 -361 -54 -245
-2 -468 141 -606 70 -68 72 -70 144 -116 167 -107 340 -170 554 -201 52 -8
104 -14 115 -15 76 -3 257 0 290 4 109 14 137 19 260 49 107 26 310 123 400
191 106 80 185 162 255 265 101 148 238 308 420 490 149 150 230 222 370 330
113 87 113 87 180 141 59 48 162 104 228 123 28 8 53 14 53 13 1 -1 3 -30 4
-63 3 -74 13 -200 20 -234 3 -14 7 -37 11 -52 3 -15 5 -30 5 -33 -2 -14 55
-155 77 -190 32 -52 91 -107 137 -129 39 -19 128 -36 160 -31 11 2 36 6 57 9
37 6 147 43 160 55 12 11 -15 71 -31 71 -42 0 -147 164 -158 247 -12 93 57
226 183 348 81 80 147 117 253 141 92 22 225 14 321 -20 158 -55 266 -140 508
-401 51 -55 120 -122 153 -150 323 -273 660 -324 865 -133 l30 29 65 -15 c160
-38 397 -44 486 -13 121 42 173 113 179 245 5 100 -13 149 -73 201 -60 54
-207 136 -201 113 4 -14 -14 -87 -28 -114 -46 -88 -115 -50 -324 180 -65 70
-208 192 -269 228 -17 10 -31 21 -31 25 0 12 157 30 253 30 92 0 181 -17 238
-46 35 -19 36 -22 7 -22 -94 -1 -141 -4 -136 -8 14 -14 273 -95 348 -109 168
-32 328 -23 417 22 58 30 110 89 134 151 18 48 20 71 16 156 -2 55 -6 106 -8
113 -2 9 22 28 63 50 170 94 250 228 252 422 0 52 -3 115 -7 140 -8 52 -43
190 -50 196 -2 2 -10 -15 -17 -38 -29 -90 -94 -181 -168 -237 -43 -32 -136
-80 -170 -86 -9 -2 -17 -4 -17 -5 0 -14 -235 -21 -300 -10 -73 13 -97 19 -102
24 -3 3 24 34 60 69 88 87 198 141 344 170 59 12 109 22 111 23 9 6 -32 65
-65 94 -76 67 -211 108 -347 105 l-61 -2 116 116 c305 306 516 664 638 1086
28 96 69 305 77 390 3 39 8 84 10 100 5 43 5 370 -1 435 -2 30 -7 77 -11 105
-3 27 -8 61 -9 75 -6 54 -37 184 -62 258 -122 369 -363 587 -723 657 -71 13
-381 15 -450 2 -111 -20 -152 -29 -200 -42 l-55 -14 81 77 c104 100 204 154
334 179 14 3 32 6 40 8 8 2 21 4 29 4 24 2 -70 63 -126 82 -174 62 -455 -24
-681 -208 l-43 -36 2 127 c2 112 7 169 24 286 11 75 18 107 42 190 98 339 285
527 570 570 73 11 153 19 153 15 0 -2 -24 -15 -54 -29 -147 -72 -221 -255
-181 -446 13 -63 82 -194 138 -261 170 -205 382 -303 657 -303 171 1 276 38
371 133 131 131 181 347 156 666 -14 178 -81 348 -168 430 l-48 44 37 11 c20
5 41 10 45 10 17 0 133 62 155 83 80 74 97 173 53 307 l-28 85 -26 -55 c-31
-64 -73 -109 -137 -142 -37 -19 -60 -23 -135 -23 -49 0 -103 3 -120 6 -59 13
-161 52 -237 91 l-77 40 25 66 c82 217 136 522 137 763 0 84 -11 248 -18 259
-1 3 -6 25 -9 50 -15 115 -60 251 -126 387 -83 170 -123 333 -106 427 10 52
29 51 93 -5 119 -101 201 -84 221 47 17 108 -29 236 -112 311 -94 84 -187 114
-336 109 -203 -7 -286 -67 -344 -248 -5 -16 -10 -15 -57 8 -77 39 -182 44
-276 12 l-73 -24 -47 41 c-27 23 -59 50 -71 61 -71 58 -181 223 -198 296 -13
55 -11 132 3 176 9 26 17 49 19 50 1 2 18 -1 36 -7 19 -6 60 -13 92 -15 159
-9 240 76 237 249 -2 80 -8 114 -47 248 -15 50 -97 114 -168 131 -58 14 -174
8 -253 -13 -21 -6 -44 -5 -67 3 l-36 12 83 57 c330 224 589 498 717 757 35 70
37 81 38 169 1 105 -3 105 -45 -3 -15 -37 -36 -74 -48 -82 -36 -24 -168 -53
-316 -69 l-56 -7 -6 64 c-10 112 -29 180 -99 361 -49 128 -68 226 -54 280 3
14 17 39 31 55 31 37 22 45 -49 45 -91 0 -174 -62 -218 -160 -10 -24 -20 -43
-22 -43 -2 0 -46 20 -99 45 -117 56 -225 85 -342 92 -331 20 -526 -179 -610
-622 -4 -16 -8 -68 -9 -115 -9 -239 84 -380 294 -447 66 -21 257 -25 365 -7
115 19 112 18 164 33 23 7 45 10 48 8 9 -9 -104 -112 -158 -145 -127 -75 -258
-103 -459 -98 -80 2 -159 7 -176 11 l-31 7 15 41 c9 25 15 75 15 122 0 91 -20
145 -75 205 -29 31 -109 90 -122 90 -2 0 -8 -15 -11 -32 -21 -97 -95 -181
-183 -209 -62 -20 -187 -17 -267 6 -57 17 -239 87 -315 122 -67 30 -255 124
-262 131 -4 4 13 8 38 10 91 5 141 59 122 131 -22 81 -114 213 -215 307 l-54
51 65 32 c65 32 140 103 172 163 18 34 44 146 38 162 -2 6 -18 13 -35 14 -22
2 -36 -4 -50 -22 -65 -83 -312 -74 -599 21 -120 40 -135 46 -285 119 -170 82
-459 266 -472 300 -2 7 4 21 14 31 61 61 185 245 228 339 45 97 58 154 59 249
1 79 -2 97 -27 147 -46 94 -144 173 -284 230 -71 29 -88 32 -188 32 -121 0
-188 -19 -272 -75 l-42 -28 -32 30 c-102 95 -237 152 -357 150 -60 -1 -63 0
-57 21 34 104 -19 253 -135 379 -32 35 -56 67 -54 70 10 17 125 -4 233 -42 46
-16 79 -24 74 -17 -148 190 -254 284 -386 343 -161 70 -323 36 -439 -92 -41
-46 -185 -263 -250 -377 -24 -41 -45 -76 -48 -76 -3 0 -5 147 -5 328 l0 327
-117 3 c-91 2 -118 0 -119 -10z m-423 -784 c18 -5 22 -14 23 -57 3 -144 94
-316 236 -445 l48 -43 -1 -262 c0 -144 -1 -266 -1 -271 -1 -5 -20 9 -43 30
-157 143 -331 174 -452 81 -19 -14 -18 -15 15 -31 39 -18 136 -101 190 -161
47 -52 120 -165 153 -238 42 -94 99 -284 89 -300 -10 -18 -110 6 -193 46 -28
13 -120 67 -135 79 -5 5 -32 25 -60 45 -93 69 -271 245 -386 383 -227 273
-247 468 -59 599 85 60 247 117 347 122 l42 3 -21 35 c-12 20 -34 52 -48 71
-40 52 -42 59 -22 53 14 -3 21 7 36 54 48 155 141 234 242 207z m1194 -16 c54
-28 92 -80 125 -173 17 -47 29 -70 40 -69 8 1 15 0 15 -1 0 -2 -22 -36 -50
-76 -27 -40 -50 -75 -50 -79 0 -3 12 -7 28 -8 84 -6 199 -39 287 -82 259 -126
262 -332 11 -639 -66 -81 -255 -275 -326 -335 -98 -83 -266 -189 -317 -201
-10 -2 -36 -9 -58 -14 -71 -18 -77 -16 -72 27 8 52 53 190 88 269 65 146 189
297 305 374 l65 44 -26 21 c-106 84 -300 44 -439 -91 -20 -19 -38 -35 -41 -35
-2 0 -4 120 -3 267 l0 266 63 66 c147 153 212 274 217 408 3 58 6 69 23 75 38
12 71 8 115 -14z m-2215 -1790 c-70 -155 -82 -314 -32 -419 55 -113 196 -215
340 -244 9 -2 22 -7 27 -10 13 -8 13 -8 -6 67 -22 85 -22 248 0 307 33 90 91
138 186 156 79 15 355 14 421 -1 105 -24 184 -67 253 -136 82 -83 109 -141
110 -233 0 -126 -80 -257 -190 -311 -82 -40 -183 -33 -184 14 -1 45 -60 134
-114 172 -53 35 -116 45 -192 30 -150 -31 -234 -122 -234 -253 0 -42 -4 -48
-49 -87 -132 -113 -341 -197 -487 -195 l-45 0 -17 50 c-37 109 -107 192 -192
225 -87 35 -265 4 -343 -61 -68 -56 -84 -119 -53 -207 14 -40 65 -116 91 -135
18 -13 -83 8 -190 41 -237 73 -329 296 -249 604 15 62 45 144 66 182 100 187
186 292 310 377 65 44 82 49 73 18 -4 -12 -10 -44 -14 -73 -20 -146 14 -270
95 -348 47 -46 134 -95 135 -76 15 168 104 360 217 467 66 62 180 124 252 138
13 2 27 6 29 9 2 2 6 2 9 -1 3 -2 -8 -33 -23 -67z m3262 11 c131 -63 230 -183
302 -367 20 -51 26 -75 39 -159 l7 -42 44 22 c67 33 136 107 162 174 19 47 23
78 23 163 0 58 -5 120 -11 138 -16 44 -1 42 69 -7 82 -57 115 -88 179 -168 75
-94 140 -214 179 -330 39 -118 45 -156 44 -278 -3 -236 -118 -359 -394 -420
-8 -2 -28 -7 -45 -11 l-29 -7 30 39 c55 71 67 97 80 167 12 63 -36 136 -114
176 -142 72 -304 59 -395 -33 -40 -40 -90 -131 -102 -185 l-7 -33 -65 6 c-163
16 -327 81 -443 175 -71 58 -78 67 -77 103 1 18 -3 53 -7 78 -19 102 -181 200
-311 187 -103 -10 -182 -80 -216 -194 -13 -47 -27 -55 -95 -55 -190 0 -347
278 -259 459 34 68 131 164 201 198 107 52 181 65 359 60 224 -5 278 -17 330
-72 56 -59 70 -107 69 -238 0 -79 -5 -139 -16 -176 l-16 -57 27 8 c14 5 49 15
76 24 54 16 155 74 194 109 131 122 150 316 50 535 -16 36 -29 66 -29 68 0 8
111 -30 167 -57z m-6877 -140 c93 -21 185 -82 216 -142 16 -31 22 -110 10
-145 -7 -22 -9 -22 -26 -7 -31 28 -113 52 -185 54 -130 4 -258 -53 -317 -140
l-30 -44 5 70 c8 95 15 132 34 185 55 151 145 203 293 169z m10526 -10 c78
-37 129 -134 149 -284 17 -121 13 -138 -18 -86 -27 45 -94 94 -164 117 -114
38 -269 26 -335 -26 l-26 -20 -6 23 c-12 45 -5 104 17 147 56 111 271 184 383
129z m-11814 -2478 c60 -3 147 -171 192 -371 25 -109 41 -210 33 -210 -3 0
-48 -15 -100 -34 -107 -38 -255 -110 -325 -157 -54 -37 -45 -23 53 79 38 40
73 85 78 100 28 100 45 531 23 584 -6 12 -3 16 11 13 10 -2 26 -4 35 -4z
m12971 -60 c-12 -113 -6 -340 12 -429 2 -11 6 -42 10 -71 6 -44 13 -58 62
-109 30 -31 71 -74 91 -95 l37 -39 -80 48 c-100 59 -216 113 -320 150 -44 15
-81 28 -83 29 -1 1 7 49 18 106 52 271 126 436 209 467 48 18 51 14 44 -57z
m-13680 -2783 c-66 -70 -81 -152 -37 -211 36 -48 165 -116 252 -133 18 -4 35
-10 37 -15 9 -14 -112 -89 -167 -103 -80 -20 -143 -3 -210 58 -33 29 -106 141
-114 173 -13 52 72 141 236 246 37 23 37 21 3 -15z m14374 0 c74 -42 148 -107
196 -171 l29 -38 -33 -65 c-38 -77 -113 -158 -166 -180 -50 -21 -124 -19 -176
5 -62 28 -144 89 -126 95 135 42 172 57 222 89 59 38 99 98 92 136 -2 9 -4 25
-4 37 -1 12 -19 42 -42 68 -22 25 -38 46 -35 46 2 0 22 -10 43 -22z m-13612
-1677 c108 -50 170 -132 178 -233 7 -83 -51 -247 -108 -304 -41 -41 -179 -71
-237 -51 -24 8 -28 14 -29 50 -3 169 -79 265 -219 275 -112 8 -299 -53 -329
-106 -5 -9 -12 -14 -15 -11 -8 8 66 121 112 171 88 96 229 173 391 213 157 39
165 39 256 -4z m12985 24 c250 -37 459 -161 565 -338 19 -32 35 -60 35 -63 0
-3 -14 6 -31 21 -88 74 -265 115 -368 85 -94 -27 -159 -122 -166 -241 -3 -53
-7 -66 -24 -75 -31 -16 -111 -8 -182 19 -58 22 -65 28 -96 83 -65 116 -87 230
-61 316 17 59 88 132 161 166 78 37 88 41 107 37 8 -2 35 -6 60 -10z m74
-3559 c126 -74 214 -253 164 -336 -14 -25 -84 -61 -103 -54 -7 3 -15 27 -18
54 -15 123 -117 241 -278 319 -107 51 -107 55 -9 60 30 2 56 4 58 6 9 9 151
-28 186 -49z m-12979 35 c30 -6 30 -6 -20 -25 -206 -76 -330 -220 -344 -397
-2 -14 -81 14 -101 36 -49 52 -27 166 51 265 73 92 157 129 294 128 50 0 104
-3 120 -7z"/>
<path d="M6459 10695 c-2 -2 -43 -6 -91 -10 -47 -3 -97 -8 -110 -10 -12 -2
-48 -6 -78 -9 -30 -4 -66 -8 -80 -11 -14 -2 -54 -9 -90 -15 -64 -10 -90 -15
-140 -25 -14 -3 -38 -8 -55 -10 -42 -7 -254 -59 -349 -85 -487 -132 -926 -349
-1271 -629 -99 -80 -295 -276 -355 -356 -25 -33 -51 -66 -58 -73 -35 -37 -150
-226 -206 -339 -84 -167 -141 -322 -172 -468 -31 -142 -39 -222 -38 -385 1
-214 40 -386 130 -579 92 -196 233 -374 358 -449 167 -102 370 -99 468 5 65
70 87 150 79 294 -1 19 -18 37 -68 75 -87 63 -254 230 -320 318 -205 276 -270
548 -198 826 62 239 269 522 538 737 40 32 74 60 77 63 3 3 21 17 40 30 19 13
37 27 40 30 5 7 122 87 152 105 9 5 61 38 115 71 228 142 389 217 668 307 117
38 334 98 410 113 52 10 199 35 237 40 24 3 54 8 68 11 14 2 111 6 215 8 277
4 456 -28 643 -115 232 -109 430 -322 493 -529 25 -84 30 -236 10 -311 -88
-331 -360 -633 -690 -769 -70 -29 -197 -68 -250 -77 -14 -3 -32 -7 -39 -9 -51
-18 -343 -25 -462 -11 -67 8 -83 13 -76 24 2 4 25 95 50 202 25 107 52 220 60
250 19 73 36 140 40 165 2 11 12 49 21 85 9 36 18 72 20 80 2 8 17 74 35 145
17 72 33 137 35 145 8 35 48 203 71 295 13 55 26 108 28 117 3 14 -1 17 -22
13 -15 -2 -61 -7 -102 -10 -41 -3 -91 -8 -110 -10 -41 -5 -116 -12 -325 -29
-33 -3 -80 -8 -105 -10 -25 -3 -79 -8 -120 -12 -41 -3 -87 -7 -101 -9 -14 -2
-66 -6 -115 -10 -144 -12 -138 -8 -171 -84 -63 -140 -7 -235 152 -256 28 -4
51 -8 52 -9 1 0 -19 -82 -43 -181 -25 -99 -47 -188 -49 -198 -2 -10 -18 -75
-35 -145 -17 -70 -34 -138 -36 -152 -3 -14 -17 -70 -30 -125 -14 -55 -27 -107
-29 -115 -2 -8 -28 -116 -59 -240 -30 -124 -71 -290 -90 -370 -19 -80 -69
-284 -111 -455 -42 -170 -78 -317 -80 -325 -2 -8 -13 -55 -25 -105 -12 -49
-23 -97 -25 -105 -2 -8 -18 -71 -35 -140 -18 -69 -34 -136 -37 -150 -8 -46
-65 -169 -104 -227 -109 -163 -269 -278 -476 -343 -37 -12 -79 -24 -93 -26
-14 -2 -34 -6 -45 -9 -11 -2 -45 -7 -75 -10 -48 -5 -61 -12 -102 -52 -76 -74
-100 -140 -72 -198 19 -40 77 -72 156 -84 56 -9 365 -6 408 4 26 6 130 6 535
0 132 -2 440 -6 684 -10 244 -3 447 -6 450 -7 46 -5 133 68 172 144 55 107 -3
195 -148 229 -61 14 -224 18 -283 7 -46 -9 -378 -14 -385 -6 -3 2 23 92 56
199 33 107 78 250 99 319 21 69 82 265 135 435 165 527 246 789 250 810 3 11
13 43 23 70 l18 50 49 0 50 0 16 -47 c51 -151 161 -204 287 -137 24 13 87 68
140 122 181 184 375 297 702 410 98 34 382 109 460 122 231 38 421 143 550
304 143 179 218 439 214 741 -1 100 -9 224 -19 286 -5 27 -10 61 -21 124 -11
59 -139 215 -266 322 -196 167 -533 321 -808 371 -14 3 -36 8 -50 11 -28 6
-69 12 -145 22 -27 3 -61 8 -75 11 -28 6 -536 14 -541 8z"/>
<path d="M12408 9025 c-2 -1 -34 -5 -73 -8 -347 -27 -751 -239 -1098 -575
-339 -329 -669 -975 -862 -1691 -25 -91 -49 -173 -54 -181 -7 -13 -45 -15
-237 -17 -126 -1 -500 -4 -831 -6 -332 -3 -603 -2 -603 1 0 4 14 52 31 107 17
55 40 132 51 170 10 39 48 165 83 280 34 116 91 305 125 420 34 116 78 262 97
325 31 102 90 300 128 430 7 25 24 82 38 128 13 45 21 84 18 86 -5 4 -118 13
-261 22 -72 4 -589 4 -660 0 -220 -14 -309 -23 -505 -51 -506 -73 -948 -240
-1195 -451 -178 -153 -279 -304 -359 -536 -74 -217 -96 -334 -95 -503 1 -243
108 -395 319 -450 57 -15 195 -21 242 -11 65 14 173 121 206 204 35 88 27 234
-19 325 -14 29 -11 27 35 -18 45 -44 53 -58 60 -105 8 -52 7 -154 -3 -195 -23
-96 -58 -156 -127 -219 -28 -26 -73 -58 -100 -71 -37 -19 -47 -29 -44 -45 35
-182 160 -476 292 -688 37 -59 69 -109 73 -112 3 -3 30 -39 62 -81 100 -135
237 -275 383 -393 406 -326 903 -504 1518 -542 89 -5 103 -4 170 21 39 15 144
63 232 106 215 106 366 216 470 343 21 26 39 45 41 44 1 -2 -6 -39 -17 -83
-22 -90 -24 -98 -34 -140 -65 -277 -292 -918 -395 -1116 -8 -15 22 -16 353
-13 793 8 1297 13 1404 13 l111 1 22 35 c47 76 23 151 -61 192 -53 26 -93 33
-224 38 -55 2 -167 7 -250 11 -156 7 -260 11 -333 13 -47 1 -46 -1 -28 77 2
12 7 37 10 55 8 49 14 77 47 239 30 144 43 206 93 416 15 61 28 119 30 130 2
10 12 48 21 84 9 36 18 72 20 80 2 8 13 53 25 100 12 47 23 90 24 95 1 6 7 26
13 45 6 19 21 73 33 120 23 88 104 372 121 425 6 17 12 38 14 48 6 29 102 326
172 537 158 473 436 1192 576 1490 66 139 200 304 316 389 192 139 378 183
571 136 39 -9 73 -21 76 -26 3 -5 12 -9 20 -9 26 0 147 -84 199 -139 96 -100
241 -144 354 -106 180 60 213 320 63 496 -94 110 -382 245 -602 283 -75 13
-284 28 -292 21z m-4259 -1157 c-38 -134 -73 -256 -78 -273 -13 -43 -192 -677
-197 -695 -2 -8 -37 -134 -79 -280 -41 -146 -77 -272 -80 -280 -2 -8 -20 -73
-40 -144 -20 -71 -37 -132 -40 -136 -6 -10 137 -296 191 -382 137 -216 260
-325 385 -342 l46 -6 133 350 133 350 36 0 c20 1 86 3 146 5 133 5 358 13 595
20 96 3 225 8 285 10 61 2 199 7 307 11 l198 6 -5 -53 c-2 -30 -7 -88 -10
-129 -11 -162 -21 -274 -30 -330 -2 -14 -6 -47 -10 -75 -11 -78 -21 -82 -51
-19 -9 19 -48 68 -86 109 -151 162 -291 172 -416 29 -43 -49 -108 -174 -136
-260 -19 -59 -75 -156 -114 -197 -131 -140 -360 -170 -651 -86 -193 55 -403
153 -466 217 -106 106 -264 296 -331 397 -19 28 -46 68 -61 91 -189 277 -351
639 -457 1019 -74 266 -187 535 -254 604 -58 61 -119 63 -168 6 -37 -41 -52
-92 -47 -155 l3 -45 -20 25 c-69 87 -82 190 -34 284 77 153 309 312 625 430
80 30 238 79 289 91 8 2 45 10 81 19 36 8 88 18 115 22 27 3 51 8 54 9 3 2 37
6 75 10 39 4 71 8 72 9 1 1 38 3 81 4 l79 3 -68 -243z"/>
<path d="M7359 5013 c-31 -95 -103 -278 -132 -338 -13 -27 -34 -71 -45 -96
-33 -73 -135 -241 -198 -326 -120 -163 -266 -284 -404 -334 -53 -20 -84 -24
-168 -24 -99 0 -105 1 -124 25 -132 167 -275 295 -388 347 -76 35 -167 43
-231 22 -81 -28 -164 -124 -208 -242 -61 -166 3 -299 185 -388 83 -40 225 -82
324 -94 30 -4 57 -8 60 -10 5 -3 86 -10 235 -21 70 -5 421 -5 472 0 130 13
386 143 571 289 122 96 280 254 372 373 108 139 194 273 281 441 l40 76 -27
39 c-45 64 -147 146 -257 207 -92 51 -281 121 -327 121 -4 0 -18 -30 -31 -67z"/>
</g>
</svg>
